# xmcd
#
# Track frame offsets: 
#        150
#        13761
#        28352
#        44199
#        56766
#        72986
#        88312
#        104731
#        116843
#        129036
#        144783
#        163227
#        181682
#        197486
#
# Disc length: 2829 seconds
#
# Revision: 2
# Processed by: cddbd v1.5.2PL0 Copyright (c) Steve Scherf et al.
# Submitted via: ExactAudioCopyFreeDBPlugin 1.0
#
DISCID=cf0b0b0e
DTITLE=Various Artist - Kilometer 330
DYEAR=2018
DGENRE=Country
TTITLE0=Jonny Hill - Und würde ich nochmal gebor'n
TTITLE1=Linda Feller - Liebe wie im Rosengarten
TTITLE2=Andy Martin - Jambalaya - Es Praline
TTITLE3=Tex Robinson - Wann's Abend wird
TTITLE4=Tobey Lucas - Our Last Ride
TTITLE5=Marina Jay - Dieser Weg führt nach Haus (Country Roads)
TTITLE6=Jonny Hill - Professor Einstein
TTITLE7=Shawn - Jailhouse Rock
TTITLE8=Borangers - Wir sind die BoRangers
TTITLE9=Linda Feller - Doch in meinem Wagen
TTITLE10=Jonny Hill - Countryblue
TTITLE11=George Hug - I wanna go to Nashville
TTITLE12=Lennebrothers Band - Rocking and trucking
TTITLE13=Jonny Hill Duett mit Linda Feller - Darling
EXTD=zur TV Sendung KM 330
EXTT0=
EXTT1=
EXTT2=
EXTT3=
EXTT4=
EXTT5=
EXTT6=
EXTT7=
EXTT8=
EXTT9=
EXTT10=
EXTT11=
EXTT12=
EXTT13=
PLAYORDER=
